<svg width="494" height="386" viewBox="0 0 494 386" fill="none" xmlns="http://www.w3.org/2000/svg">
<path d="M7.57812 151.641L20.8594 49.7656C21.6406 43.724 23.8021 40.6771 27.3438 40.625C28.1771 40.625 28.9583 40.7292 29.6875 40.9375C31.6667 41.6667 32.6562 43.8542 32.6562 47.5C32.6562 51.9792 30.4948 71.0156 26.1719 104.609C30.026 97.8385 35.5208 94.4271 42.6562 94.375C45.2083 94.375 47.5781 95.1823 49.7656 96.7969C52.8906 99.0885 54.4531 102.135 54.4531 105.938C54.4531 106.51 54.4531 107.969 54.4531 110.312C54.401 115.677 54.375 119.922 54.375 123.047C54.375 133.828 54.6615 140.078 55.2344 141.797C55.3385 142.161 55.4688 142.552 55.625 142.969C57.1875 147.083 59.2708 149.141 61.875 149.141C62.3958 149.141 62.9427 149.089 63.5156 148.984C65.026 148.62 67.2396 147.396 70.1562 145.312C73.0208 143.229 75.3125 142.188 77.0312 142.188C77.6562 142.188 78.2812 142.37 78.9062 142.734C80.5729 143.724 81.4062 145.286 81.4062 147.422C81.4062 147.578 81.3802 147.786 81.3281 148.047C80.9635 150.547 78.8021 153.151 74.8438 155.859C70 159.089 65.2083 160.703 60.4688 160.703C58.5938 160.703 56.8229 160.469 55.1562 160C46.5104 157.448 42.1875 148.49 42.1875 133.125C42.1875 131.823 42.2396 129.792 42.3438 127.031C42.5 123.75 42.5781 121.198 42.5781 119.375C42.5781 111.667 41.901 107.76 40.5469 107.656C40.2865 107.656 40 107.708 39.6875 107.812C36.7188 108.958 32.9427 114.792 28.3594 125.312C24.349 134.688 21.7708 142.578 20.625 148.984C20.4167 150.026 20.3125 150.833 20.3125 151.406C20.1562 153.281 19.6354 154.974 18.75 156.484C17.2917 158.984 15.4427 160.234 13.2031 160.234C12.5781 160.234 11.9531 160.104 11.3281 159.844C8.82812 158.802 7.57812 156.38 7.57812 152.578V151.641ZM141.562 122.969C141.562 122.969 143.646 114.688 147.812 98.125C148.906 95.4167 150.833 94.0365 153.594 93.9844C154.635 94.0365 155.677 94.1406 156.719 94.2969C165.469 95.7031 172.578 100.156 178.047 107.656C183.151 114.688 185.703 122.708 185.703 131.719C185.599 137.292 184.297 142.969 181.797 148.75C178.932 155.052 175.573 158.203 171.719 158.203C170.677 158.203 169.688 157.76 168.75 156.875C167.396 155.573 166.719 154.141 166.719 152.578C166.719 151.901 166.849 151.198 167.109 150.469C167.109 150.469 167.422 149.896 168.047 148.75C171.797 142.76 173.698 136.693 173.75 130.547C173.75 129.818 173.724 129.089 173.672 128.359C173.151 121.641 170.521 115.938 165.781 111.25C162.76 108.125 160 106.536 157.5 106.484C156.979 108.464 156.12 112.057 154.922 117.266C152.266 128.932 149.714 137.422 147.266 142.734C141.901 154.141 134.115 159.844 123.906 159.844C117.344 159.792 112.552 156.484 109.531 149.922C108.854 150.703 108.073 151.51 107.188 152.344C101.927 157.344 96.6146 159.844 91.25 159.844C87.9167 159.844 85.0521 158.984 82.6562 157.266C77.2917 153.464 74.6094 146.016 74.6094 134.922C74.6094 133.151 74.7135 131.276 74.9219 129.297C76.0156 120.391 78.8281 112.474 83.3594 105.547C88.9323 97.0573 95.599 92.8125 103.359 92.8125C106.745 92.8125 109.688 93.4635 112.188 94.7656C113.229 93.5156 114.609 92.8646 116.328 92.8125C117.005 92.8125 117.656 92.8906 118.281 93.0469C120.521 93.6719 121.641 95.8854 121.641 99.6875C121.641 101.198 121.38 104.453 120.859 109.453C119.245 124.245 118.438 133.438 118.438 137.031C118.438 139.01 118.776 140.911 119.453 142.734C120.755 146.432 122.812 148.281 125.625 148.281C129.01 148.229 132.005 146.198 134.609 142.188C136.797 138.646 139.115 132.24 141.562 122.969ZM102.422 140.234C102.786 139.661 103.229 138.542 103.75 136.875C105.885 129.792 107.839 118.828 109.609 103.984C108.307 103.359 107.109 103.047 106.016 103.047C105.026 103.047 104.036 103.177 103.047 103.438C98.2552 104.896 94.1927 109.427 90.8594 117.031C87.8385 123.854 86.3281 130.651 86.3281 137.422C86.3281 138.411 86.3802 139.349 86.4844 140.234C86.9531 145.286 88.5417 147.812 91.25 147.812C92.7083 147.812 94.4792 147.083 96.5625 145.625C99.0104 143.906 100.964 142.109 102.422 140.234ZM196.406 73.5156C196.458 73.5156 196.719 73.5156 197.188 73.5156C200.104 73.6198 202.734 73.6719 205.078 73.6719L208.516 49.5312C208.724 47.9167 208.984 46.5625 209.297 45.4688C210.234 42.0312 212.135 40.3125 215 40.3125C215.573 40.3125 216.146 40.3646 216.719 40.4688C219.115 41.0417 220.312 43.3073 220.312 47.2656C220.312 48.5156 219.271 57.3177 217.188 73.6719H225.391C226.797 73.6719 228.021 73.9583 229.062 74.5312C230.885 75.625 231.797 77.2396 231.797 79.375C231.797 80.3125 231.562 81.1979 231.094 82.0312C229.896 84.0104 227.943 85 225.234 85H215.547C211.484 116.25 209.453 133.776 209.453 137.578C209.453 139.974 209.948 142.214 210.938 144.297C212.396 147.422 214.323 148.984 216.719 148.984C217.292 148.984 217.891 148.906 218.516 148.75C219.922 148.385 221.927 147.188 224.531 145.156C227.083 143.125 229.219 142.109 230.938 142.109C231.667 142.109 232.37 142.266 233.047 142.578C234.922 143.516 235.859 144.948 235.859 146.875C235.703 149.583 233.698 152.396 229.844 155.312C225.156 158.698 220.182 160.391 214.922 160.391C209.766 160.339 205.547 158.177 202.266 153.906C198.932 149.375 197.266 143.672 197.266 136.797C197.266 135.286 199.323 118.021 203.438 85H196.406C196.094 85 195.781 85 195.469 85C191.875 84.6875 190.078 82.8125 190.078 79.375C190.078 78.4375 190.234 77.5781 190.547 76.7969C191.484 74.6094 193.438 73.5156 196.406 73.5156ZM226.172 135.469C226.172 133.698 226.276 131.823 226.484 129.844C227.578 120.885 230.391 112.943 234.922 106.016C240.443 97.5781 247.083 93.3594 254.844 93.3594C258.177 93.3594 261.094 94.0104 263.594 95.3125C264.635 94.0625 266.068 93.4115 267.891 93.3594C268.932 93.3594 269.583 93.4375 269.844 93.5938C272.083 94.3229 273.203 96.5365 273.203 100.234C273.203 101.745 272.943 105 272.422 110C270.807 124.792 270 133.984 270 137.578C270 139.974 270.495 142.214 271.484 144.297C272.943 147.422 274.87 148.984 277.266 148.984C277.734 148.984 278.229 148.932 278.75 148.828C280.312 148.516 282.552 147.318 285.469 145.234C288.333 143.151 290.625 142.109 292.344 142.109C293.021 142.109 293.724 142.344 294.453 142.812C295.964 143.854 296.719 145.234 296.719 146.953C296.562 149.661 294.505 152.474 290.547 155.391C285.807 158.724 280.781 160.391 275.469 160.391C268.906 160.339 264.062 157.031 260.938 150.469C260.208 151.354 259.375 152.24 258.438 153.125C253.281 157.969 248.047 160.391 242.734 160.391C239.401 160.391 236.51 159.531 234.062 157.812C228.802 153.958 226.172 146.51 226.172 135.469ZM260.547 109.766C260.547 109.766 260.729 107.995 261.094 104.453C259.948 103.88 258.75 103.594 257.5 103.594C256.562 103.594 255.599 103.724 254.609 103.984C249.766 105.339 245.677 109.818 242.344 117.422C239.375 124.245 237.891 131.094 237.891 137.969C237.891 138.229 237.891 138.49 237.891 138.75C238.047 145.104 239.661 148.281 242.734 148.281C244.349 148.229 246.328 147.344 248.672 145.625C251.068 143.906 252.812 142.292 253.906 140.781C254.583 139.792 255.495 136.901 256.641 132.109C258.724 123.203 260.026 115.755 260.547 109.766ZM389.766 160C377.214 159.479 367.917 151.823 361.875 137.031C357.396 125.885 355.156 112.24 355.156 96.0938C355.156 95.2604 355.208 94.1927 355.312 92.8906C356.042 81.901 358.073 71.8229 361.406 62.6562C366.823 47.8646 374.479 40.4688 384.375 40.4688C384.896 40.4688 385.443 40.4948 386.016 40.5469C395.026 41.1198 399.531 46.3542 399.531 56.25C399.531 67.0312 394.896 79.0104 385.625 92.1875C379.74 100.573 373.568 107.37 367.109 112.578C368.88 122.474 370.833 129.896 372.969 134.844C376.927 144.01 382.812 148.594 390.625 148.594C391.146 148.594 391.693 148.542 392.266 148.438C393.984 148.125 396.38 146.875 399.453 144.688C402.422 142.656 404.74 141.641 406.406 141.641C407.135 141.641 407.839 141.875 408.516 142.344C410.026 143.385 410.781 144.792 410.781 146.562C410.677 149.271 408.75 152.057 405 154.922C400.312 158.307 395.234 160 389.766 160ZM384.453 52.2656C381.38 52.3177 378.672 53.6458 376.328 56.25C370.391 62.9688 367.135 77.0052 366.562 98.3594C369.688 95.1823 372.812 91.4323 375.938 87.1094C384.583 75.2865 388.906 65.3125 388.906 57.1875C388.906 56.7708 388.802 56.276 388.594 55.7031C387.76 53.4115 386.38 52.2656 384.453 52.2656ZM397.422 135.469C397.422 133.698 397.526 131.823 397.734 129.844C398.828 120.885 401.641 112.943 406.172 106.016C411.693 97.5781 418.333 93.3594 426.094 93.3594C429.427 93.3594 432.344 94.0104 434.844 95.3125C435.885 94.0625 437.318 93.4115 439.141 93.3594C440.182 93.3594 440.833 93.4375 441.094 93.5938C443.333 94.3229 444.453 96.5365 444.453 100.234C444.453 101.745 444.193 105 443.672 110C442.057 124.792 441.25 133.984 441.25 137.578C441.25 139.974 441.745 142.214 442.734 144.297C444.193 147.422 446.12 148.984 448.516 148.984C448.984 148.984 449.479 148.932 450 148.828C451.562 148.516 453.802 147.318 456.719 145.234C459.583 143.151 461.875 142.109 463.594 142.109C464.271 142.109 464.974 142.344 465.703 142.812C467.214 143.854 467.969 145.234 467.969 146.953C467.812 149.661 465.755 152.474 461.797 155.391C457.057 158.724 452.031 160.391 446.719 160.391C440.156 160.339 435.312 157.031 432.188 150.469C431.458 151.354 430.625 152.24 429.688 153.125C424.531 157.969 419.297 160.391 413.984 160.391C410.651 160.391 407.76 159.531 405.312 157.812C400.052 153.958 397.422 146.51 397.422 135.469ZM431.797 109.766C431.797 109.766 431.979 107.995 432.344 104.453C431.198 103.88 430 103.594 428.75 103.594C427.812 103.594 426.849 103.724 425.859 103.984C421.016 105.339 416.927 109.818 413.594 117.422C410.625 124.245 409.141 131.094 409.141 137.969C409.141 138.229 409.141 138.49 409.141 138.75C409.297 145.104 410.911 148.281 413.984 148.281C415.599 148.229 417.578 147.344 419.922 145.625C422.318 143.906 424.062 142.292 425.156 140.781C425.833 139.792 426.745 136.901 427.891 132.109C429.974 123.203 431.276 115.755 431.797 109.766Z" fill="black"/>
<path d="M115.781 236.403C115.781 242.561 114.861 248.02 113.02 252.78C111.179 257.541 108.64 261.699 105.403 265.253C102.229 268.808 98.4839 271.823 94.1675 274.299C89.8511 276.774 85.2173 278.806 80.2661 280.393C75.3784 281.916 70.3003 283.059 65.0317 283.82C59.7632 284.519 54.5898 284.899 49.5117 284.963V329.333H5.1416C5.1416 314.797 5.17334 300.324 5.23682 285.915C5.30029 271.506 5.39551 256.97 5.52246 242.307C5.64941 234.562 5.68115 226.818 5.61768 219.074C5.5542 211.33 5.71289 203.522 6.09375 195.651C14.2188 193.239 22.3438 191.43 30.4688 190.224C38.5938 189.018 46.9727 188.415 55.6055 188.415C60.4932 188.415 65.3809 188.828 70.2686 189.653C75.1562 190.415 79.8218 191.652 84.2651 193.366C88.772 195.08 92.9297 197.238 96.7383 199.841C100.61 202.38 103.943 205.427 106.736 208.981C109.529 212.536 111.719 216.599 113.306 221.169C114.956 225.676 115.781 230.754 115.781 236.403ZM73.5059 239.641C73.5059 235.515 72.2363 232.309 69.6973 230.024C67.2217 227.675 63.9844 226.501 59.9854 226.501C58.6523 226.501 57.2559 226.628 55.7959 226.882C54.3994 227.072 53.0664 227.326 51.7969 227.644L50.6543 255.446C51.543 255.573 52.3999 255.637 53.2251 255.637C54.0503 255.637 54.9072 255.637 55.7959 255.637C58.0811 255.637 60.271 255.256 62.3657 254.494C64.5239 253.732 66.4282 252.653 68.0786 251.257C69.729 249.797 71.0303 248.115 71.9824 246.21C72.998 244.243 73.5059 242.053 73.5059 239.641ZM172.434 193.938L161.96 323.62L121.78 325.715V196.604L172.434 193.938ZM276.599 277.346C276.599 286.042 275.076 293.659 272.029 300.197C269.045 306.672 264.919 312.067 259.651 316.384C254.446 320.7 248.32 323.938 241.274 326.096C234.292 328.254 226.77 329.333 218.708 329.333C215.598 329.333 212.17 328.92 208.425 328.095C204.744 327.27 200.999 326.254 197.19 325.048C193.381 323.779 189.7 322.446 186.145 321.049C182.654 319.589 179.543 318.225 176.814 316.955L181.003 277.727C186.399 280.964 192.366 283.439 198.904 285.153C205.505 286.804 211.98 287.629 218.328 287.629C219.534 287.629 220.994 287.597 222.708 287.534C224.421 287.407 226.04 287.121 227.563 286.677C229.15 286.169 230.483 285.439 231.562 284.487C232.642 283.535 233.181 282.17 233.181 280.393C233.181 279.187 232.8 278.171 232.039 277.346C231.277 276.457 230.293 275.759 229.087 275.251C227.881 274.68 226.516 274.267 224.993 274.013C223.469 273.696 221.978 273.474 220.518 273.347C219.058 273.22 217.693 273.156 216.423 273.156C215.154 273.156 214.138 273.156 213.376 273.156C207.917 273.156 202.935 272.204 198.428 270.3C193.984 268.396 190.144 265.761 186.907 262.397C183.733 258.969 181.257 254.938 179.48 250.305C177.703 245.607 176.814 240.529 176.814 235.07C176.814 227.58 178.306 220.883 181.289 214.98C184.336 209.013 188.367 203.967 193.381 199.841C198.459 195.651 204.268 192.446 210.806 190.224C217.344 188.002 224.104 186.892 231.086 186.892C234.197 186.892 237.402 187.019 240.703 187.272C244.004 187.463 247.273 187.844 250.51 188.415C253.811 188.986 257.017 189.716 260.127 190.605C263.237 191.494 266.189 192.604 268.982 193.938L265.364 232.595C261.047 231.135 256.509 229.929 251.748 228.977C247.051 227.961 242.449 227.453 237.942 227.453C237.117 227.453 236.038 227.485 234.705 227.548C233.435 227.548 232.07 227.644 230.61 227.834C229.214 227.961 227.786 228.183 226.326 228.5C224.866 228.818 223.564 229.262 222.422 229.833C221.279 230.341 220.359 231.04 219.661 231.928C218.962 232.817 218.645 233.864 218.708 235.07C218.772 236.467 219.28 237.609 220.232 238.498C221.248 239.323 222.517 239.99 224.041 240.498C225.627 240.942 227.341 241.259 229.182 241.45C231.086 241.64 232.959 241.767 234.8 241.831C236.641 241.831 238.354 241.831 239.941 241.831C241.528 241.767 242.83 241.799 243.845 241.926C248.923 242.243 253.494 243.322 257.556 245.163C261.619 247.004 265.046 249.448 267.839 252.495C270.696 255.542 272.854 259.191 274.314 263.444C275.837 267.634 276.599 272.268 276.599 277.346ZM381.05 191.843L380.098 232.214L351.724 233.356L344.487 323.62L304.307 325.715L304.497 235.451L276.123 236.975L277.266 192.033L381.05 191.843ZM493.213 319.812L445.986 325.905L440.273 304.387H418.564L413.804 325.905L365.244 321.145L403.14 194.318L456.079 191.652L493.213 319.812ZM436.846 275.251L429.609 242.116L422.563 275.251H436.846Z" fill="black"/>
</svg>
